{
  "source": "C:\\Users\\Peter\\Desktop\\stuff\\MIUN\\quantitative_research\\video_compression\\videos\\BVI-HD\\BVI-HD_CDVL_videos\\ORIG\\PaintingTilting_1920x1080_60fps.mp4",
  "output": "C:\\Users\\Peter\\Desktop\\stuff\\MIUN\\quantitative_research\\video_compression\\compressed_videos\\BVI-HD\\vp9\\2\\PaintingTilting_1920x1080_60fps_vp9.webm",
  "codec": "vp9",
  "ok": "Input #0, mov,mp4,m4a,3gp,3g2,mj2, from 'C:\\Users\\Peter\\Desktop\\stuff\\MIUN\\quantitative_research\\video_compression\\videos\\BVI-HD\\BVI-HD_CDVL_videos\\ORIG\\PaintingTilting_1920x1080_60fps.mp4':\n  Metadata:\n    major_brand     : isom\n    minor_version   : 512\n    compatible_brands: isomiso2avc1mp41\n    encoder         : Lavf54.28.101\n  Duration: 00:00:05.00, start: 0.000000, bitrate: 667707 kb/s\n  Stream #0:0[0x1](und): Video: h264 (High 4:4:4 Predictive) (avc1 / 0x31637661), yuv420p(progressive), 1920x1080, 667702 kb/s, 60 fps, 60 tbr, 60 tbn (default)\n    Metadata:\n      handler_name    : VideoHandler\n      vendor_id       : [0][0][0][0]\n[out#0/webm @ 000002d6bb1e9180] Codec AVOption b:a (set bitrate (in bits/s)) has not been used for any stream. The most likely reason is either wrong type (e.g. a video option with no video streams) or that it is a private option of some decoder which was not actually used for any stream.\nStream mapping:\n  Stream #0:0 -> #0:0 (h264 (native) -> vp9 (libvpx-vp9))\nPress [q] to stop, [?] for help\n[libvpx-vp9 @ 000002d6bbdf00c0] v1.15.2-100-g40561f514\nOutput #0, webm, to 'C:\\Users\\Peter\\Desktop\\stuff\\MIUN\\quantitative_research\\video_compression\\compressed_videos\\BVI-HD\\vp9\\2\\PaintingTilting_1920x1080_60fps_vp9.webm':\n  Metadata:\n    major_brand     : isom\n    minor_version   : 512\n    compatible_brands: isomiso2avc1mp41\n    encoder         : Lavf62.3.100\n  Stream #0:0(und): Video: vp9, yuv420p(tv, progressive), 1920x1080, q=2-31, 2000 kb/s, 60 fps, 1k tbn (default)\n    Metadata:\n      encoder         : Lavc62.11.100 libvpx-vp9\n      handler_name    : VideoHandler\n      vendor_id       : [0][0][0][0]\n    Side data:\n      cpb: bitrate max/min/avg: 0/0/0 buffer size: 2000000 vbv_delay: N/A\nframe=    0 fps=0.0 q=0.0 size=       0KiB time=N/A bitrate=N/A speed=N/A elapsed=0:00:01.04    \nframe=    7 fps=3.9 q=43.0 size=       1KiB time=00:00:00.11 bitrate=  43.4kbits/s speed=0.0648x elapsed=0:00:01.80    \nframe=   12 fps=5.1 q=40.0 size=       1KiB time=00:00:00.20 bitrate=  25.3kbits/s speed=0.0857x elapsed=0:00:02.33    \nframe=   15 fps=5.2 q=38.0 size=       1KiB time=00:00:00.25 bitrate=  20.3kbits/s speed=0.0871x elapsed=0:00:02.87    \nframe=   18 fps=5.3 q=38.0 size=       1KiB time=00:00:00.30 bitrate=  16.9kbits/s speed=0.0887x elapsed=0:00:03.38    \nframe=   22 fps=5.6 q=39.0 size=       1KiB time=00:00:00.36 bitrate=  13.8kbits/s speed=0.094x elapsed=0:00:03.89    \nframe=   25 fps=5.6 q=31.0 size=       1KiB time=00:00:00.41 bitrate=  12.2kbits/s speed=0.0937x elapsed=0:00:04.44    \nframe=   29 fps=5.8 q=37.0 size=       1KiB time=00:00:00.48 bitrate=  10.5kbits/s speed=0.0968x elapsed=0:00:04.99    \nframe=   33 fps=6.0 q=38.0 size=       1KiB time=00:00:00.55 bitrate=   9.2kbits/s speed=0.0995x elapsed=0:00:05.53    \nframe=   36 fps=5.9 q=39.0 size=       1KiB time=00:00:00.60 bitrate=   8.4kbits/s speed=0.099x elapsed=0:00:06.06    \nframe=   41 fps=6.2 q=37.0 size=       1KiB time=00:00:00.68 bitrate=   7.4kbits/s speed=0.104x elapsed=0:00:06.58    \nframe=   45 fps=6.4 q=38.0 size=       1KiB time=00:00:00.75 bitrate=   6.8kbits/s speed=0.106x elapsed=0:00:07.08    \nframe=   49 fps=6.4 q=29.0 size=       1KiB time=00:00:00.81 bitrate=   6.2kbits/s speed=0.107x elapsed=0:00:07.60    \nframe=   53 fps=6.5 q=36.0 size=       1KiB time=00:00:00.88 bitrate=   5.7kbits/s speed=0.109x elapsed=0:00:08.11    \nframe=   58 fps=6.7 q=37.0 size=       1KiB time=00:00:00.96 bitrate=   5.2kbits/s speed=0.112x elapsed=0:00:08.64    \nframe=   62 fps=6.7 q=38.0 size=       1KiB time=00:00:01.03 bitrate=   4.9kbits/s speed=0.112x elapsed=0:00:09.18    \nframe=   65 fps=6.7 q=36.0 size=       1KiB time=00:00:01.08 bitrate=   4.7kbits/s speed=0.111x elapsed=0:00:09.73    \nframe=   68 fps=6.6 q=37.0 size=       1KiB time=00:00:01.13 bitrate=   4.5kbits/s speed=0.11x elapsed=0:00:10.27    \nframe=   72 fps=6.7 q=38.0 size=       1KiB time=00:00:01.20 bitrate=   4.2kbits/s speed=0.111x elapsed=0:00:10.78    \nframe=   75 fps=6.6 q=37.0 size=       1KiB time=00:00:01.25 bitrate=   4.1kbits/s speed=0.11x elapsed=0:00:11.32    \nframe=   78 fps=6.6 q=37.0 size=       1KiB time=00:00:01.30 bitrate=   3.9kbits/s speed=0.109x elapsed=0:00:11.87    \nframe=   82 fps=6.6 q=38.0 size=       1KiB time=00:00:01.36 bitrate=   3.7kbits/s speed=0.11x elapsed=0:00:12.39    \nframe=   85 fps=6.6 q=30.0 size=       1KiB time=00:00:01.41 bitrate=   3.6kbits/s speed=0.11x elapsed=0:00:12.93    \nframe=   88 fps=6.5 q=36.0 size=       1KiB time=00:00:01.46 bitrate=   3.5kbits/s speed=0.109x elapsed=0:00:13.45    \nframe=   92 fps=6.6 q=37.0 size=       1KiB time=00:00:01.53 bitrate=   3.3kbits/s speed=0.11x elapsed=0:00:13.96    \nframe=   96 fps=6.6 q=38.0 size=       1KiB time=00:00:01.60 bitrate=   3.2kbits/s speed=0.11x elapsed=0:00:14.50    \nframe=   99 fps=6.6 q=37.0 size=       1KiB time=00:00:01.65 bitrate=   3.1kbits/s speed=0.11x elapsed=0:00:15.03    \nframe=  103 fps=6.6 q=37.0 size=       1KiB time=00:00:01.71 bitrate=   2.9kbits/s speed=0.11x elapsed=0:00:15.56    \nframe=  106 fps=6.6 q=38.0 size=       1KiB time=00:00:01.76 bitrate=   2.9kbits/s speed=0.11x elapsed=0:00:16.09    \nframe=  110 fps=6.6 q=39.0 size=       1KiB time=00:00:01.83 bitrate=   2.8kbits/s speed=0.11x elapsed=0:00:16.62    \nframe=  114 fps=6.6 q=38.0 size=       1KiB time=00:00:01.88 bitrate=   2.7kbits/s speed=0.11x elapsed=0:00:17.17    \nframe=  118 fps=6.7 q=38.0 size=       1KiB time=00:00:01.96 bitrate=   2.6kbits/s speed=0.111x elapsed=0:00:17.72    \nframe=  121 fps=6.6 q=37.0 size=       1KiB time=00:00:02.01 bitrate=   2.5kbits/s speed=0.111x elapsed=0:00:18.24    \nframe=  124 fps=6.6 q=38.0 size=       1KiB time=00:00:02.06 bitrate=   2.5kbits/s speed=0.11x elapsed=0:00:18.77    \nframe=  128 fps=6.6 q=39.0 size=       1KiB time=00:00:02.13 bitrate=   2.4kbits/s speed=0.111x elapsed=0:00:19.30    \nframe=  132 fps=6.7 q=37.0 size=     768KiB time=00:00:02.18 bitrate=2881.6kbits/s speed=0.11x elapsed=0:00:19.83    \nframe=  135 fps=6.6 q=38.0 size=     768KiB time=00:00:02.25 bitrate=2796.2kbits/s speed=0.11x elapsed=0:00:20.37    \nframe=  139 fps=6.6 q=38.0 size=     768KiB time=00:00:02.31 bitrate=2715.7kbits/s speed=0.111x elapsed=0:00:20.90    \nframe=  142 fps=6.6 q=37.0 size=     768KiB time=00:00:02.36 bitrate=2658.4kbits/s speed=0.11x elapsed=0:00:21.45    \nframe=  145 fps=6.6 q=37.0 size=     768KiB time=00:00:02.41 bitrate=2603.4kbits/s speed=0.11x elapsed=0:00:21.97    \nframe=  149 fps=6.6 q=38.0 size=     768KiB time=00:00:02.48 bitrate=2533.5kbits/s speed=0.11x elapsed=0:00:22.50    \nframe=  151 fps=6.5 q=39.0 size=     768KiB time=00:00:02.51 bitrate=2499.9kbits/s speed=0.109x elapsed=0:00:23.05    \nframe=  155 fps=6.6 q=37.0 size=     768KiB time=00:00:02.58 bitrate=2435.4kbits/s speed=0.11x elapsed=0:00:23.59    \nframe=  158 fps=6.5 q=37.0 size=     768KiB time=00:00:02.63 bitrate=2389.2kbits/s speed=0.109x elapsed=0:00:24.13    \nframe=  161 fps=6.5 q=37.0 size=     768KiB time=00:00:02.68 bitrate=2344.6kbits/s speed=0.109x elapsed=0:00:24.65    \nframe=  165 fps=6.6 q=38.0 size=     768KiB time=00:00:02.75 bitrate=2287.8kbits/s speed=0.109x elapsed=0:00:25.18    \nframe=  168 fps=6.5 q=37.0 size=     768KiB time=00:00:02.80 bitrate=2246.9kbits/s speed=0.109x elapsed=0:00:25.71    \nframe=  172 fps=6.6 q=38.0 size=     768KiB time=00:00:02.86 bitrate=2194.7kbits/s speed=0.109x elapsed=0:00:26.25    \nframe=  175 fps=6.5 q=39.0 size=     768KiB time=00:00:02.91 bitrate=2157.1kbits/s speed=0.109x elapsed=0:00:26.79    \nframe=  179 fps=6.5 q=37.0 size=     768KiB time=00:00:02.98 bitrate=2108.9kbits/s speed=0.109x elapsed=0:00:27.33    \nframe=  183 fps=6.6 q=38.0 size=     768KiB time=00:00:03.05 bitrate=2062.8kbits/s speed=0.109x elapsed=0:00:27.87    \nframe=  187 fps=6.6 q=38.0 size=     768KiB time=00:00:03.11 bitrate=2018.6kbits/s speed=0.11x elapsed=0:00:28.39    \nframe=  190 fps=6.6 q=37.0 size=     768KiB time=00:00:03.16 bitrate=1986.8kbits/s speed=0.109x elapsed=0:00:28.92    \nframe=  194 fps=6.6 q=37.0 size=     768KiB time=00:00:03.23 bitrate=1945.8kbits/s speed=0.11x elapsed=0:00:29.46    \nframe=  197 fps=6.6 q=38.0 size=     768KiB time=00:00:03.28 bitrate=1916.2kbits/s speed=0.109x elapsed=0:00:29.99    \nframe=  201 fps=6.6 q=38.0 size=     768KiB time=00:00:03.35 bitrate=1878.0kbits/s speed=0.11x elapsed=0:00:30.51    \nframe=  204 fps=6.6 q=37.0 size=     768KiB time=00:00:03.40 bitrate=1850.4kbits/s speed=0.109x elapsed=0:00:31.07    \nframe=  208 fps=6.6 q=39.0 size=     768KiB time=00:00:03.46 bitrate=1814.8kbits/s speed=0.11x elapsed=0:00:31.59    \nframe=  211 fps=6.6 q=38.0 size=     768KiB time=00:00:03.51 bitrate=1789.0kbits/s speed=0.11x elapsed=0:00:32.11    \nframe=  215 fps=6.6 q=37.0 size=     768KiB time=00:00:03.58 bitrate=1755.8kbits/s speed=0.11x elapsed=0:00:32.63    \nframe=  219 fps=6.6 q=38.0 size=     768KiB time=00:00:03.65 bitrate=1723.7kbits/s speed=0.11x elapsed=0:00:33.14    \nframe=  223 fps=6.6 q=38.0 size=     768KiB time=00:00:03.71 bitrate=1692.8kbits/s speed=0.11x elapsed=0:00:33.66    \nframe=  226 fps=6.6 q=37.0 size=     768KiB time=00:00:03.76 bitrate=1670.3kbits/s speed=0.11x elapsed=0:00:34.19    \nframe=  230 fps=6.6 q=38.0 size=     768KiB time=00:00:03.83 bitrate=1641.2kbits/s speed=0.11x elapsed=0:00:34.72    \nframe=  234 fps=6.6 q=38.0 size=     768KiB time=00:00:03.90 bitrate=1613.2kbits/s speed=0.111x elapsed=0:00:35.26    \nframe=  238 fps=6.6 q=38.0 size=     768KiB time=00:00:03.96 bitrate=1586.1kbits/s speed=0.111x elapsed=0:00:35.80    \nframe=  241 fps=6.6 q=38.0 size=     768KiB time=00:00:04.01 bitrate=1566.3kbits/s speed=0.111x elapsed=0:00:36.31    \nframe=  245 fps=6.7 q=38.0 size=     768KiB time=00:00:04.08 bitrate=1540.8kbits/s speed=0.111x elapsed=0:00:36.84    \nframe=  249 fps=6.7 q=37.0 size=     768KiB time=00:00:04.15 bitrate=1516.0kbits/s speed=0.111x elapsed=0:00:37.37    \nframe=  253 fps=6.7 q=37.0 size=     768KiB time=00:00:04.21 bitrate=1492.0kbits/s speed=0.111x elapsed=0:00:37.88    \nframe=  256 fps=6.7 q=38.0 size=     768KiB time=00:00:04.26 bitrate=1474.6kbits/s speed=0.111x elapsed=0:00:38.40    \nframe=  260 fps=6.7 q=37.0 size=    1536KiB time=00:00:04.33 bitrate=2903.7kbits/s speed=0.111x elapsed=0:00:38.92    \nframe=  264 fps=6.7 q=37.0 size=    1536KiB time=00:00:04.40 bitrate=2859.8kbits/s speed=0.112x elapsed=0:00:39.44    \nframe=  268 fps=6.7 q=38.0 size=    1536KiB time=00:00:04.46 bitrate=2817.1kbits/s speed=0.112x elapsed=0:00:39.96    \nframe=  272 fps=6.7 q=37.0 size=    1536KiB time=00:00:04.53 bitrate=2775.6kbits/s speed=0.112x elapsed=0:00:40.49    \nframe=  275 fps=6.7 q=38.0 size=    1536KiB time=00:00:04.58 bitrate=2745.4kbits/s speed=0.112x elapsed=0:00:41.02    \nframe=  276 fps=6.6 q=37.0 size=    1536KiB time=00:00:04.60 bitrate=2735.4kbits/s speed=0.111x elapsed=0:00:41.53    \nframe=  276 fps=6.6 q=37.0 size=    1536KiB time=00:00:04.60 bitrate=2735.4kbits/s speed=0.109x elapsed=0:00:42.08    \nframe=  276 fps=6.5 q=37.0 size=    1536KiB time=00:00:04.60 bitrate=2735.4kbits/s speed=0.108x elapsed=0:00:42.61    \nframe=  276 fps=6.4 q=37.0 size=    1536KiB time=00:00:04.60 bitrate=2735.4kbits/s speed=0.107x elapsed=0:00:43.14    \nframe=  276 fps=6.3 q=37.0 size=    1536KiB time=00:00:04.60 bitrate=2735.4kbits/s speed=0.105x elapsed=0:00:43.66    \nframe=  276 fps=6.2 q=37.0 size=    1536KiB time=00:00:04.60 bitrate=2735.4kbits/s speed=0.104x elapsed=0:00:44.21    \n[out#0/webm @ 000002d6bb1e9180] video:2143KiB audio:0KiB subtitle:0KiB other streams:0KiB global headers:0KiB muxing overhead: 0.129895%\nframe=  300 fps=6.7 q=37.0 Lsize=    2145KiB time=00:00:05.00 bitrate=3515.1kbits/s speed=0.112x elapsed=0:00:44.60    \n",
  "seconds": 44.988662004470825,
  "probe_out": {}
}